<svg width="1440" height="93" viewBox="0 0 1440 93" fill="none" xmlns="http://www.w3.org/2000/svg">
<g clip-path="url(#clip0_11_93)">
<rect width="1440" height="93" fill="#FCF9FF"/>
<path d="M1243.45 50.6265V41.9482H1244.76V49.5851H1248.7V50.6265H1243.45ZM1252.68 50.7753C1252.09 50.7753 1251.56 50.6431 1251.09 50.3786C1250.63 50.1058 1250.26 49.7298 1249.99 49.2504C1249.71 48.7627 1249.58 48.1966 1249.58 47.5519C1249.58 46.9072 1249.71 46.3452 1249.99 45.8658C1250.27 45.3782 1250.64 45.0021 1251.12 44.7377C1251.59 44.4649 1252.11 44.3285 1252.69 44.3285C1253.28 44.3285 1253.8 44.4649 1254.26 44.7377C1254.74 45.0021 1255.11 45.3782 1255.38 45.8658C1255.66 46.3452 1255.8 46.9072 1255.8 47.5519C1255.8 48.1966 1255.66 48.7627 1255.38 49.2504C1255.11 49.7298 1254.74 50.1058 1254.26 50.3786C1253.79 50.6431 1253.26 50.7753 1252.68 50.7753ZM1252.68 49.6471C1252.99 49.6471 1253.28 49.5686 1253.55 49.4116C1253.82 49.2545 1254.04 49.0231 1254.2 48.7173C1254.37 48.4032 1254.45 48.0148 1254.45 47.5519C1254.45 47.0891 1254.37 46.7047 1254.2 46.3989C1254.05 46.0849 1253.83 45.8493 1253.56 45.6923C1253.29 45.5352 1253 45.4567 1252.69 45.4567C1252.38 45.4567 1252.08 45.5352 1251.81 45.6923C1251.55 45.8493 1251.33 46.0849 1251.17 46.3989C1251 46.7047 1250.92 47.0891 1250.92 47.5519C1250.92 48.0148 1251 48.4032 1251.17 48.7173C1251.33 49.0231 1251.55 49.2545 1251.81 49.4116C1252.07 49.5686 1252.36 49.6471 1252.68 49.6471ZM1259.41 48.7421C1259.09 48.7421 1258.79 48.7049 1258.52 48.6305L1257.99 49.1512C1258.08 49.2091 1258.19 49.2587 1258.32 49.3C1258.45 49.3413 1258.64 49.3785 1258.88 49.4116C1259.12 49.4446 1259.45 49.4777 1259.86 49.5107C1260.68 49.5851 1261.27 49.7835 1261.63 50.1058C1262 50.4199 1262.18 50.8414 1262.18 51.3704C1262.18 51.734 1262.08 52.077 1261.88 52.3994C1261.69 52.73 1261.39 52.9945 1260.98 53.1928C1260.57 53.3995 1260.05 53.5028 1259.41 53.5028C1258.55 53.5028 1257.86 53.3375 1257.32 53.0069C1256.79 52.6845 1256.52 52.1928 1256.52 51.5316C1256.52 51.2753 1256.59 51.0191 1256.72 50.7629C1256.86 50.5149 1257.08 50.2794 1257.38 50.0562C1257.21 49.9818 1257.05 49.9033 1256.92 49.8207C1256.8 49.7298 1256.69 49.6388 1256.59 49.5479V49.2504L1257.65 48.1594C1257.17 47.7461 1256.93 47.2048 1256.93 46.5353C1256.93 46.1303 1257.03 45.7625 1257.22 45.4319C1257.42 45.0931 1257.7 44.8244 1258.07 44.6261C1258.45 44.4277 1258.89 44.3285 1259.41 44.3285C1259.76 44.3285 1260.08 44.3781 1260.38 44.4773H1262.67V45.3451L1261.58 45.4071C1261.78 45.746 1261.88 46.1221 1261.88 46.5353C1261.88 46.9486 1261.78 47.3205 1261.58 47.6511C1261.39 47.9817 1261.11 48.2462 1260.74 48.4445C1260.38 48.6429 1259.93 48.7421 1259.41 48.7421ZM1259.41 47.7131C1259.79 47.7131 1260.1 47.6139 1260.33 47.4155C1260.57 47.2089 1260.69 46.9196 1260.69 46.5477C1260.69 46.1675 1260.57 45.8782 1260.33 45.6799C1260.1 45.4815 1259.79 45.3823 1259.41 45.3823C1259.02 45.3823 1258.71 45.4815 1258.47 45.6799C1258.24 45.8782 1258.12 46.1675 1258.12 46.5477C1258.12 46.9196 1258.24 47.2089 1258.47 47.4155C1258.71 47.6139 1259.02 47.7131 1259.41 47.7131ZM1257.76 51.4076C1257.76 51.763 1257.92 52.0275 1258.24 52.201C1258.55 52.3829 1258.94 52.4738 1259.41 52.4738C1259.87 52.4738 1260.24 52.3746 1260.52 52.1762C1260.8 51.9861 1260.94 51.7299 1260.94 51.4076C1260.94 51.1679 1260.84 50.9613 1260.65 50.7877C1260.46 50.6224 1260.1 50.5191 1259.57 50.4778C1259.18 50.453 1258.83 50.4158 1258.52 50.3662C1258.23 50.5232 1258.03 50.6926 1257.93 50.8745C1257.82 51.0563 1257.76 51.234 1257.76 51.4076ZM1271.02 50.7753C1270.16 50.7753 1269.41 50.5852 1268.77 50.205C1268.12 49.8248 1267.62 49.3 1267.25 48.6305C1266.89 47.9528 1266.71 47.1717 1266.71 46.2874C1266.71 45.403 1266.89 44.6261 1267.25 43.9566C1267.62 43.2789 1268.12 42.7499 1268.77 42.3697C1269.41 41.9895 1270.16 41.7994 1271.02 41.7994C1271.88 41.7994 1272.64 41.9895 1273.28 42.3697C1273.92 42.7499 1274.42 43.2789 1274.78 43.9566C1275.14 44.6261 1275.33 45.403 1275.33 46.2874C1275.33 47.1717 1275.14 47.9528 1274.78 48.6305C1274.42 49.3 1273.92 49.8248 1273.28 50.205C1272.64 50.5852 1271.88 50.7753 1271.02 50.7753ZM1271.02 49.5975C1271.62 49.5975 1272.14 49.4653 1272.57 49.2008C1273.02 48.9363 1273.37 48.5561 1273.61 48.0602C1273.86 47.5643 1273.99 46.9734 1273.99 46.2874C1273.99 45.6014 1273.86 45.0104 1273.61 44.5145C1273.37 44.0186 1273.02 43.6384 1272.57 43.3739C1272.14 43.1094 1271.62 42.9772 1271.02 42.9772C1270.43 42.9772 1269.91 43.1094 1269.46 43.3739C1269.01 43.6384 1268.67 44.0186 1268.42 44.5145C1268.18 45.0104 1268.06 45.6014 1268.06 46.2874C1268.06 46.9734 1268.18 47.5643 1268.42 48.0602C1268.67 48.5561 1269.01 48.9363 1269.46 49.2008C1269.91 49.4653 1270.43 49.5975 1271.02 49.5975ZM1279.01 50.7753C1278.26 50.7753 1277.68 50.5439 1277.25 50.081C1276.83 49.6182 1276.62 48.9281 1276.62 48.0106V44.4773H1277.93V47.8743C1277.93 49.0644 1278.42 49.6595 1279.39 49.6595C1279.88 49.6595 1280.28 49.4859 1280.6 49.1388C1280.91 48.7917 1281.07 48.2958 1281.07 47.6511V44.4773H1282.38V50.6265H1281.22L1281.12 49.5479C1280.93 49.9281 1280.65 50.2298 1280.27 50.453C1279.91 50.6679 1279.49 50.7753 1279.01 50.7753ZM1286.63 50.6265C1286.03 50.6265 1285.55 50.4819 1285.19 50.1926C1284.84 49.8951 1284.66 49.3702 1284.66 48.6181V45.5807H1283.61V44.4773H1284.66L1284.82 42.9152H1285.97V44.4773H1287.71V45.5807H1285.97V48.6181C1285.97 48.957 1286.04 49.1925 1286.18 49.3248C1286.33 49.4488 1286.59 49.5107 1286.94 49.5107H1287.65V50.6265H1286.63Z" fill="#111324"/>
<rect x="1216.5" y="28.5" width="98.1327" height="36.2531" rx="3.04218" stroke="#111324"/>
<circle cx="107.5" cy="34.5" r="7.5" fill="#482461"/>
<circle cx="107.5" cy="57.5" r="7.5" fill="#233862"/>
<circle cx="131.5" cy="34.5" r="7.5" fill="#3CB89D"/>
<circle cx="131.5" cy="57.5" r="7.5" fill="#E4660F"/>
<path d="M661.391 41.1855L665.976 51H664.394L663.368 48.6562H658.769L657.729 51H656.146L660.731 41.1855H661.391ZM661.083 43.4121L659.311 47.4111H662.826L661.083 43.4121ZM671.088 43.5293C671.723 43.5293 672.294 43.6855 672.802 43.998C673.319 44.3008 673.729 44.7305 674.032 45.2871C674.345 45.834 674.501 46.4785 674.501 47.2207C674.501 48.0215 674.345 48.7246 674.032 49.3301C673.729 49.9258 673.31 50.3896 672.772 50.7217C672.245 51.0537 671.645 51.2197 670.971 51.2197C670.551 51.2197 670.121 51.1074 669.682 50.8828C669.252 50.6582 668.881 50.3701 668.568 50.0186V54.5156H667.367V43.6758H668.568V44.9209C668.822 44.5303 669.164 44.2031 669.594 43.9395C670.033 43.666 670.531 43.5293 671.088 43.5293ZM670.897 44.7012C670.458 44.7012 670.058 44.8135 669.696 45.0381C669.345 45.2627 669.066 45.5752 668.861 45.9756C668.666 46.3662 668.568 46.8252 668.568 47.3525L668.583 48.7588C668.896 49.1396 669.223 49.4521 669.564 49.6963C669.906 49.9307 670.302 50.0479 670.751 50.0479C671.278 50.0479 671.728 49.9111 672.099 49.6377C672.47 49.3643 672.753 49.0127 672.948 48.583C673.153 48.1436 673.256 47.6895 673.256 47.2207C673.256 46.7422 673.158 46.3174 672.963 45.9463C672.768 45.5654 672.494 45.2627 672.143 45.0381C671.791 44.8135 671.376 44.7012 670.897 44.7012ZM680.199 43.5293C680.834 43.5293 681.405 43.6855 681.913 43.998C682.431 44.3008 682.841 44.7305 683.144 45.2871C683.456 45.834 683.612 46.4785 683.612 47.2207C683.612 48.0215 683.456 48.7246 683.144 49.3301C682.841 49.9258 682.421 50.3896 681.884 50.7217C681.356 51.0537 680.756 51.2197 680.082 51.2197C679.662 51.2197 679.232 51.1074 678.793 50.8828C678.363 50.6582 677.992 50.3701 677.68 50.0186V54.5156H676.479V43.6758H677.68V44.9209C677.934 44.5303 678.275 44.2031 678.705 43.9395C679.145 43.666 679.643 43.5293 680.199 43.5293ZM680.009 44.7012C679.569 44.7012 679.169 44.8135 678.808 45.0381C678.456 45.2627 678.178 45.5752 677.973 45.9756C677.777 46.3662 677.68 46.8252 677.68 47.3525L677.694 48.7588C678.007 49.1396 678.334 49.4521 678.676 49.6963C679.018 49.9307 679.413 50.0479 679.862 50.0479C680.39 50.0479 680.839 49.9111 681.21 49.6377C681.581 49.3643 681.864 49.0127 682.06 48.583C682.265 48.1436 682.367 47.6895 682.367 47.2207C682.367 46.7422 682.27 46.3174 682.074 45.9463C681.879 45.5654 681.605 45.2627 681.254 45.0381C680.902 44.8135 680.487 44.7012 680.009 44.7012ZM686.791 40.4531V51H685.59V40.4531H686.791ZM690.453 40.1602C690.736 40.1602 690.971 40.2627 691.156 40.4678C691.352 40.6631 691.449 40.8926 691.449 41.1562C691.449 41.4102 691.352 41.6396 691.156 41.8447C690.971 42.0498 690.736 42.1523 690.453 42.1523C690.17 42.1523 689.931 42.0498 689.735 41.8447C689.55 41.6396 689.457 41.4102 689.457 41.1562C689.457 40.8926 689.55 40.6631 689.735 40.4678C689.931 40.2627 690.17 40.1602 690.453 40.1602ZM691.2 43.6758V51H689.999V44.8037H688.842V43.6758H691.2ZM696.811 43.5293C697.562 43.5293 698.188 43.6855 698.686 43.998C699.184 44.3105 699.555 44.7354 699.799 45.2725C700.053 45.8096 700.18 46.415 700.18 47.0889V47.8066H694.555C694.613 48.2168 694.755 48.5928 694.979 48.9346C695.204 49.2764 695.497 49.5498 695.858 49.7549C696.22 49.9502 696.635 50.0479 697.104 50.0479C697.631 50.0479 698.124 49.916 698.583 49.6523C699.042 49.3789 699.428 49.0811 699.74 48.7588L699.726 50.0625C699.589 50.2285 699.384 50.4043 699.11 50.5898C698.847 50.7656 698.539 50.9121 698.188 51.0293C697.846 51.1562 697.484 51.2197 697.104 51.2197C696.361 51.2197 695.702 51.0439 695.126 50.6924C694.55 50.3408 694.096 49.877 693.764 49.3008C693.441 48.7148 693.28 48.0752 693.28 47.3818C693.28 46.6885 693.432 46.0488 693.734 45.4629C694.037 44.877 694.452 44.4082 694.979 44.0566C695.517 43.7051 696.127 43.5293 696.811 43.5293ZM696.811 44.7012C696.205 44.7012 695.707 44.9062 695.316 45.3164C694.926 45.7168 694.682 46.2051 694.584 46.7812H698.993C698.944 46.3027 698.808 45.9121 698.583 45.6094C698.368 45.3066 698.104 45.082 697.792 44.9355C697.479 44.7793 697.152 44.7012 696.811 44.7012ZM708.778 40.4531V51H707.577V49.7549C707.323 50.1455 706.977 50.4873 706.537 50.7803C706.107 51.0732 705.614 51.2197 705.058 51.2197C704.433 51.2197 703.861 51.0635 703.344 50.751C702.826 50.4287 702.411 49.9844 702.099 49.418C701.796 48.8516 701.645 48.1973 701.645 47.4551C701.645 46.6445 701.796 45.9463 702.099 45.3604C702.411 44.7744 702.836 44.3252 703.373 44.0127C703.91 43.6904 704.511 43.5293 705.175 43.5293C705.595 43.5293 706.02 43.6318 706.449 43.8369C706.889 44.0322 707.265 44.3057 707.577 44.6572V40.4531H708.778ZM705.395 44.7305C704.867 44.7305 704.418 44.8623 704.047 45.126C703.676 45.3799 703.388 45.7119 703.183 46.1221C702.987 46.5322 702.89 46.9766 702.89 47.4551C702.89 47.9238 702.987 48.3584 703.183 48.7588C703.378 49.1494 703.651 49.4619 704.003 49.6963C704.364 49.9307 704.779 50.0479 705.248 50.0479C705.697 50.0479 706.098 49.9307 706.449 49.6963C706.801 49.4619 707.079 49.1396 707.284 48.7295C707.489 48.3096 707.587 47.8408 707.577 47.3232L707.562 45.917C707.26 45.5361 706.933 45.2432 706.581 45.0381C706.239 44.833 705.844 44.7305 705.395 44.7305ZM717.421 41.1562V50.502C717.421 51.332 717.284 52.0205 717.011 52.5674C716.737 53.1143 716.361 53.5537 715.883 53.8857C715.414 54.2275 714.872 54.5107 714.257 54.7354L713.612 53.4609C715.272 52.8652 716.103 51.9668 716.103 50.7656V41.1562H717.421ZM723.588 43.5293C724.33 43.5293 724.989 43.7051 725.565 44.0566C726.142 44.4082 726.591 44.877 726.913 45.4629C727.245 46.0488 727.411 46.6885 727.411 47.3818C727.411 48.0752 727.245 48.7148 726.913 49.3008C726.591 49.877 726.142 50.3408 725.565 50.6924C724.989 51.0439 724.33 51.2197 723.588 51.2197C722.846 51.2197 722.187 51.0439 721.61 50.6924C721.034 50.3408 720.58 49.877 720.248 49.3008C719.926 48.7148 719.765 48.0752 719.765 47.3818C719.765 46.6885 719.926 46.0488 720.248 45.4629C720.58 44.877 721.034 44.4082 721.61 44.0566C722.187 43.7051 722.846 43.5293 723.588 43.5293ZM723.588 44.7012C723.07 44.7012 722.616 44.8281 722.226 45.082C721.835 45.3262 721.532 45.6533 721.317 46.0635C721.112 46.4639 721.01 46.9033 721.01 47.3818C721.01 47.8506 721.112 48.29 721.317 48.7002C721.532 49.1006 721.835 49.4277 722.226 49.6816C722.616 49.9258 723.07 50.0479 723.588 50.0479C724.115 50.0479 724.569 49.9258 724.95 49.6816C725.341 49.4277 725.639 49.1006 725.844 48.7002C726.059 48.29 726.166 47.8506 726.166 47.3818C726.166 46.9033 726.059 46.4639 725.844 46.0635C725.639 45.6533 725.341 45.3262 724.95 45.082C724.569 44.8281 724.115 44.7012 723.588 44.7012ZM732.992 43.5293C733.666 43.5293 734.267 43.6904 734.794 44.0127C735.331 44.3252 735.751 44.7744 736.054 45.3604C736.366 45.9463 736.522 46.6445 736.522 47.4551C736.522 48.1973 736.366 48.8516 736.054 49.418C735.751 49.9844 735.341 50.4287 734.823 50.751C734.315 51.0635 733.744 51.2197 733.109 51.2197C732.553 51.2197 732.055 51.0732 731.615 50.7803C731.186 50.4873 730.844 50.1455 730.59 49.7549V51H729.389V40.4531H730.59V44.6572C730.902 44.3057 731.273 44.0322 731.703 43.8369C732.143 43.6318 732.572 43.5293 732.992 43.5293ZM732.772 44.7158C732.323 44.7158 731.928 44.8232 731.586 45.0381C731.244 45.2432 730.917 45.5361 730.604 45.917L730.59 47.3232C730.59 47.8408 730.688 48.3047 730.883 48.7148C731.088 49.125 731.366 49.4473 731.718 49.6816C732.079 49.916 732.479 50.0332 732.919 50.0332C733.397 50.0332 733.812 49.916 734.164 49.6816C734.516 49.4473 734.789 49.1348 734.984 48.7441C735.18 48.3535 735.277 47.9238 735.277 47.4551C735.277 46.9766 735.175 46.5322 734.97 46.1221C734.774 45.7021 734.491 45.3652 734.12 45.1113C733.749 44.8477 733.3 44.7158 732.772 44.7158ZM740.683 43.5293C741.112 43.5293 741.513 43.5928 741.884 43.7197C742.255 43.8369 742.523 43.959 742.689 44.0859V45.375C742.484 45.2188 742.206 45.0674 741.854 44.9209C741.503 44.7744 741.142 44.7012 740.771 44.7012C740.312 44.7012 739.965 44.8086 739.73 45.0234C739.506 45.2383 739.394 45.4629 739.394 45.6973C739.394 45.8828 739.457 46.0732 739.584 46.2686C739.721 46.4541 739.955 46.6055 740.287 46.7227L741.518 47.1621C741.996 47.3281 742.353 47.5674 742.587 47.8799C742.821 48.1924 742.938 48.5586 742.938 48.9785C742.938 49.3887 742.821 49.7646 742.587 50.1064C742.362 50.4482 742.045 50.7217 741.635 50.9268C741.234 51.1221 740.771 51.2197 740.243 51.2197C739.96 51.2197 739.662 51.1807 739.35 51.1025C739.047 51.0342 738.773 50.9512 738.529 50.8535C738.285 50.7461 738.104 50.6533 737.987 50.5752V49.2861C738.124 49.3838 738.314 49.4961 738.559 49.623C738.812 49.7402 739.081 49.8428 739.364 49.9307C739.647 50.0088 739.911 50.0479 740.155 50.0479C740.614 50.0479 740.976 49.9453 741.239 49.7402C741.513 49.5352 741.649 49.2812 741.649 48.9785C741.649 48.7441 741.557 48.5586 741.371 48.4219C741.195 48.2852 740.937 48.1533 740.595 48.0264L739.511 47.6309C738.944 47.416 738.568 47.1475 738.383 46.8252C738.197 46.4932 738.104 46.1172 738.104 45.6973C738.104 45.0723 738.339 44.5547 738.808 44.1445C739.276 43.7344 739.901 43.5293 740.683 43.5293Z" fill="black"/>
<path d="M787.903 40.9658C788.616 40.9658 789.197 41.0635 789.646 41.2588C790.105 41.4541 790.506 41.708 790.848 42.0205V43.4707C790.633 43.3145 790.389 43.1436 790.115 42.958C789.852 42.7725 789.539 42.6113 789.178 42.4746C788.826 42.3281 788.401 42.2549 787.903 42.2549C787.171 42.2549 786.517 42.4209 785.94 42.7529C785.364 43.085 784.91 43.5439 784.578 44.1299C784.246 44.7061 784.08 45.3604 784.08 46.0928C784.08 46.8252 784.246 47.4795 784.578 48.0557C784.91 48.6318 785.364 49.0908 785.94 49.4326C786.517 49.7646 787.171 49.9307 787.903 49.9307C788.655 49.9307 789.295 49.8086 789.822 49.5645C790.359 49.3105 790.799 49.0518 791.141 48.7881V50.1064C790.799 50.4092 790.35 50.6729 789.793 50.8975C789.246 51.1123 788.616 51.2197 787.903 51.2197C787.161 51.2197 786.478 51.0879 785.853 50.8242C785.228 50.5508 784.681 50.1797 784.212 49.7109C783.743 49.2422 783.377 48.7002 783.113 48.085C782.859 47.46 782.732 46.7959 782.732 46.0928C782.732 45.3896 782.859 44.7305 783.113 44.1152C783.377 43.4902 783.743 42.9434 784.212 42.4746C784.681 42.0059 785.228 41.6396 785.853 41.376C786.478 41.1025 787.161 40.9658 787.903 40.9658ZM794.319 43.6758V45.1406C794.603 44.6523 794.944 44.2617 795.345 43.9688C795.745 43.6758 796.155 43.5293 796.575 43.5293C796.858 43.5293 797.112 43.5781 797.337 43.6758V45.0674C797.024 44.8818 796.712 44.7891 796.399 44.7891C795.901 44.7891 795.496 44.9648 795.184 45.3164C794.881 45.668 794.593 46.0879 794.319 46.5762V51H793.118V43.6758H794.319ZM801.893 43.5293C802.645 43.5293 803.27 43.6855 803.768 43.998C804.266 44.3105 804.637 44.7354 804.881 45.2725C805.135 45.8096 805.262 46.415 805.262 47.0889V47.8066H799.637C799.695 48.2168 799.837 48.5928 800.062 48.9346C800.286 49.2764 800.579 49.5498 800.94 49.7549C801.302 49.9502 801.717 50.0479 802.186 50.0479C802.713 50.0479 803.206 49.916 803.665 49.6523C804.124 49.3789 804.51 49.0811 804.822 48.7588L804.808 50.0625C804.671 50.2285 804.466 50.4043 804.192 50.5898C803.929 50.7656 803.621 50.9121 803.27 51.0293C802.928 51.1562 802.566 51.2197 802.186 51.2197C801.443 51.2197 800.784 51.0439 800.208 50.6924C799.632 50.3408 799.178 49.877 798.846 49.3008C798.523 48.7148 798.362 48.0752 798.362 47.3818C798.362 46.6885 798.514 46.0488 798.816 45.4629C799.119 44.877 799.534 44.4082 800.062 44.0566C800.599 43.7051 801.209 43.5293 801.893 43.5293ZM801.893 44.7012C801.287 44.7012 800.789 44.9062 800.398 45.3164C800.008 45.7168 799.764 46.2051 799.666 46.7812H804.075C804.026 46.3027 803.89 45.9121 803.665 45.6094C803.45 45.3066 803.187 45.082 802.874 44.9355C802.562 44.7793 802.234 44.7012 801.893 44.7012ZM810.257 43.5293C810.677 43.5293 811.102 43.6318 811.531 43.8369C811.971 44.0322 812.347 44.3057 812.659 44.6572V43.6758H813.86V51H812.659V49.7549C812.405 50.1455 812.059 50.4873 811.619 50.7803C811.189 51.0732 810.696 51.2197 810.14 51.2197C809.515 51.2197 808.943 51.0635 808.426 50.751C807.908 50.4287 807.493 49.9844 807.181 49.418C806.878 48.8516 806.727 48.1973 806.727 47.4551C806.727 46.6445 806.878 45.9463 807.181 45.3604C807.493 44.7744 807.918 44.3252 808.455 44.0127C808.992 43.6904 809.593 43.5293 810.257 43.5293ZM810.477 44.7012C809.949 44.7012 809.5 44.833 809.129 45.0967C808.758 45.3604 808.47 45.7021 808.265 46.1221C808.069 46.5322 807.972 46.9766 807.972 47.4551C807.972 47.9238 808.069 48.3584 808.265 48.7588C808.46 49.1494 808.733 49.4619 809.085 49.6963C809.446 49.9307 809.861 50.0479 810.33 50.0479C810.779 50.0479 811.18 49.9307 811.531 49.6963C811.883 49.4619 812.161 49.1396 812.366 48.7295C812.571 48.3096 812.669 47.8408 812.659 47.3232L812.645 45.917C812.342 45.5361 812.015 45.2383 811.663 45.0234C811.321 44.8086 810.926 44.7012 810.477 44.7012ZM818.372 41.5664V43.6758H820.511V44.8037H818.372V49.0957C818.372 49.3984 818.45 49.6377 818.606 49.8135C818.763 49.9893 819.002 50.0771 819.324 50.0771C819.617 50.0771 819.861 50.043 820.057 49.9746C820.252 49.8965 820.423 49.8135 820.569 49.7256V50.707C820.374 50.8633 820.164 50.9854 819.939 51.0732C819.725 51.1709 819.432 51.2197 819.061 51.2197C818.436 51.2197 817.962 51.0342 817.64 50.6631C817.327 50.2822 817.171 49.7793 817.171 49.1543V44.8037H815.765V44.4521C816.243 44.2373 816.644 43.8857 816.966 43.3975C817.288 42.8994 817.571 42.2891 817.815 41.5664H818.372ZM825.711 43.5293C826.463 43.5293 827.088 43.6855 827.586 43.998C828.084 44.3105 828.455 44.7354 828.699 45.2725C828.953 45.8096 829.08 46.415 829.08 47.0889V47.8066H823.455C823.514 48.2168 823.655 48.5928 823.88 48.9346C824.104 49.2764 824.397 49.5498 824.759 49.7549C825.12 49.9502 825.535 50.0479 826.004 50.0479C826.531 50.0479 827.024 49.916 827.483 49.6523C827.942 49.3789 828.328 49.0811 828.641 48.7588L828.626 50.0625C828.489 50.2285 828.284 50.4043 828.011 50.5898C827.747 50.7656 827.439 50.9121 827.088 51.0293C826.746 51.1562 826.385 51.2197 826.004 51.2197C825.262 51.2197 824.603 51.0439 824.026 50.6924C823.45 50.3408 822.996 49.877 822.664 49.3008C822.342 48.7148 822.181 48.0752 822.181 47.3818C822.181 46.6885 822.332 46.0488 822.635 45.4629C822.938 44.877 823.353 44.4082 823.88 44.0566C824.417 43.7051 825.027 43.5293 825.711 43.5293ZM825.711 44.7012C825.105 44.7012 824.607 44.9062 824.217 45.3164C823.826 45.7168 823.582 46.2051 823.484 46.7812H827.894C827.845 46.3027 827.708 45.9121 827.483 45.6094C827.269 45.3066 827.005 45.082 826.692 44.9355C826.38 44.7793 826.053 44.7012 825.711 44.7012ZM837.679 40.4531V51H836.478V49.7549C836.224 50.1455 835.877 50.4873 835.438 50.7803C835.008 51.0732 834.515 51.2197 833.958 51.2197C833.333 51.2197 832.762 51.0635 832.244 50.751C831.727 50.4287 831.312 49.9844 830.999 49.418C830.696 48.8516 830.545 48.1973 830.545 47.4551C830.545 46.6445 830.696 45.9463 830.999 45.3604C831.312 44.7744 831.736 44.3252 832.273 44.0127C832.811 43.6904 833.411 43.5293 834.075 43.5293C834.495 43.5293 834.92 43.6318 835.35 43.8369C835.789 44.0322 836.165 44.3057 836.478 44.6572V40.4531H837.679ZM834.295 44.7305C833.768 44.7305 833.318 44.8623 832.947 45.126C832.576 45.3799 832.288 45.7119 832.083 46.1221C831.888 46.5322 831.79 46.9766 831.79 47.4551C831.79 47.9238 831.888 48.3584 832.083 48.7588C832.278 49.1494 832.552 49.4619 832.903 49.6963C833.265 49.9307 833.68 50.0479 834.148 50.0479C834.598 50.0479 834.998 49.9307 835.35 49.6963C835.701 49.4619 835.979 49.1396 836.185 48.7295C836.39 48.3096 836.487 47.8408 836.478 47.3232L836.463 45.917C836.16 45.5361 835.833 45.2432 835.481 45.0381C835.14 44.833 834.744 44.7305 834.295 44.7305ZM846.321 41.1562V50.502C846.321 51.332 846.185 52.0205 845.911 52.5674C845.638 53.1143 845.262 53.5537 844.783 53.8857C844.314 54.2275 843.772 54.5107 843.157 54.7354L842.513 53.4609C844.173 52.8652 845.003 51.9668 845.003 50.7656V41.1562H846.321ZM852.488 43.5293C853.23 43.5293 853.89 43.7051 854.466 44.0566C855.042 44.4082 855.491 44.877 855.813 45.4629C856.146 46.0488 856.312 46.6885 856.312 47.3818C856.312 48.0752 856.146 48.7148 855.813 49.3008C855.491 49.877 855.042 50.3408 854.466 50.6924C853.89 51.0439 853.23 51.2197 852.488 51.2197C851.746 51.2197 851.087 51.0439 850.511 50.6924C849.935 50.3408 849.48 49.877 849.148 49.3008C848.826 48.7148 848.665 48.0752 848.665 47.3818C848.665 46.6885 848.826 46.0488 849.148 45.4629C849.48 44.877 849.935 44.4082 850.511 44.0566C851.087 43.7051 851.746 43.5293 852.488 43.5293ZM852.488 44.7012C851.971 44.7012 851.517 44.8281 851.126 45.082C850.735 45.3262 850.433 45.6533 850.218 46.0635C850.013 46.4639 849.91 46.9033 849.91 47.3818C849.91 47.8506 850.013 48.29 850.218 48.7002C850.433 49.1006 850.735 49.4277 851.126 49.6816C851.517 49.9258 851.971 50.0479 852.488 50.0479C853.016 50.0479 853.47 49.9258 853.851 49.6816C854.241 49.4277 854.539 49.1006 854.744 48.7002C854.959 48.29 855.066 47.8506 855.066 47.3818C855.066 46.9033 854.959 46.4639 854.744 46.0635C854.539 45.6533 854.241 45.3262 853.851 45.082C853.47 44.8281 853.016 44.7012 852.488 44.7012ZM861.893 43.5293C862.566 43.5293 863.167 43.6904 863.694 44.0127C864.231 44.3252 864.651 44.7744 864.954 45.3604C865.267 45.9463 865.423 46.6445 865.423 47.4551C865.423 48.1973 865.267 48.8516 864.954 49.418C864.651 49.9844 864.241 50.4287 863.724 50.751C863.216 51.0635 862.645 51.2197 862.01 51.2197C861.453 51.2197 860.955 51.0732 860.516 50.7803C860.086 50.4873 859.744 50.1455 859.49 49.7549V51H858.289V40.4531H859.49V44.6572C859.803 44.3057 860.174 44.0322 860.604 43.8369C861.043 43.6318 861.473 43.5293 861.893 43.5293ZM861.673 44.7158C861.224 44.7158 860.828 44.8232 860.486 45.0381C860.145 45.2432 859.817 45.5361 859.505 45.917L859.49 47.3232C859.49 47.8408 859.588 48.3047 859.783 48.7148C859.988 49.125 860.267 49.4473 860.618 49.6816C860.979 49.916 861.38 50.0332 861.819 50.0332C862.298 50.0332 862.713 49.916 863.064 49.6816C863.416 49.4473 863.689 49.1348 863.885 48.7441C864.08 48.3535 864.178 47.9238 864.178 47.4551C864.178 46.9766 864.075 46.5322 863.87 46.1221C863.675 45.7021 863.392 45.3652 863.021 45.1113C862.649 44.8477 862.2 44.7158 861.673 44.7158ZM869.583 43.5293C870.013 43.5293 870.413 43.5928 870.784 43.7197C871.155 43.8369 871.424 43.959 871.59 44.0859V45.375C871.385 45.2188 871.106 45.0674 870.755 44.9209C870.403 44.7744 870.042 44.7012 869.671 44.7012C869.212 44.7012 868.865 44.8086 868.631 45.0234C868.406 45.2383 868.294 45.4629 868.294 45.6973C868.294 45.8828 868.357 46.0732 868.484 46.2686C868.621 46.4541 868.855 46.6055 869.188 46.7227L870.418 47.1621C870.896 47.3281 871.253 47.5674 871.487 47.8799C871.722 48.1924 871.839 48.5586 871.839 48.9785C871.839 49.3887 871.722 49.7646 871.487 50.1064C871.263 50.4482 870.945 50.7217 870.535 50.9268C870.135 51.1221 869.671 51.2197 869.144 51.2197C868.86 51.2197 868.562 51.1807 868.25 51.1025C867.947 51.0342 867.674 50.9512 867.43 50.8535C867.186 50.7461 867.005 50.6533 866.888 50.5752V49.2861C867.024 49.3838 867.215 49.4961 867.459 49.623C867.713 49.7402 867.981 49.8428 868.265 49.9307C868.548 50.0088 868.812 50.0479 869.056 50.0479C869.515 50.0479 869.876 49.9453 870.14 49.7402C870.413 49.5352 870.55 49.2812 870.55 48.9785C870.55 48.7441 870.457 48.5586 870.271 48.4219C870.096 48.2852 869.837 48.1533 869.495 48.0264L868.411 47.6309C867.845 47.416 867.469 47.1475 867.283 46.8252C867.098 46.4932 867.005 46.1172 867.005 45.6973C867.005 45.0723 867.239 44.5547 867.708 44.1445C868.177 43.7344 868.802 43.5293 869.583 43.5293Z" fill="black"/>
<path d="M916.391 41.1855L920.976 51H919.394L918.368 48.6562H913.769L912.729 51H911.146L915.731 41.1855H916.391ZM916.083 43.4121L914.311 47.4111H917.826L916.083 43.4121ZM928.358 43.6758V48.0117C928.358 48.6562 928.222 49.2129 927.948 49.6816C927.675 50.1504 927.304 50.5117 926.835 50.7656C926.366 51.0195 925.839 51.1465 925.253 51.1465C924.667 51.1465 924.14 51.0195 923.671 50.7656C923.202 50.5117 922.831 50.1504 922.558 49.6816C922.284 49.2129 922.147 48.6562 922.147 48.0117V43.6758H923.393V48.0117C923.393 48.6465 923.578 49.1348 923.949 49.4766C924.33 49.8086 924.765 49.9746 925.253 49.9746C925.741 49.9746 926.171 49.8086 926.542 49.4766C926.923 49.1348 927.113 48.6465 927.113 48.0117V43.6758H928.358ZM937.25 40.4531V51H936.049V49.7549C935.795 50.1455 935.448 50.4873 935.009 50.7803C934.579 51.0732 934.086 51.2197 933.529 51.2197C932.904 51.2197 932.333 51.0635 931.815 50.751C931.298 50.4287 930.883 49.9844 930.57 49.418C930.268 48.8516 930.116 48.1973 930.116 47.4551C930.116 46.6445 930.268 45.9463 930.57 45.3604C930.883 44.7744 931.308 44.3252 931.845 44.0127C932.382 43.6904 932.982 43.5293 933.646 43.5293C934.066 43.5293 934.491 43.6318 934.921 43.8369C935.36 44.0322 935.736 44.3057 936.049 44.6572V40.4531H937.25ZM933.866 44.7305C933.339 44.7305 932.89 44.8623 932.519 45.126C932.147 45.3799 931.859 45.7119 931.654 46.1221C931.459 46.5322 931.361 46.9766 931.361 47.4551C931.361 47.9238 931.459 48.3584 931.654 48.7588C931.85 49.1494 932.123 49.4619 932.475 49.6963C932.836 49.9307 933.251 50.0479 933.72 50.0479C934.169 50.0479 934.569 49.9307 934.921 49.6963C935.272 49.4619 935.551 49.1396 935.756 48.7295C935.961 48.3096 936.059 47.8408 936.049 47.3232L936.034 45.917C935.731 45.5361 935.404 45.2432 935.053 45.0381C934.711 44.833 934.315 44.7305 933.866 44.7305ZM940.912 40.1602C941.195 40.1602 941.43 40.2627 941.615 40.4678C941.811 40.6631 941.908 40.8926 941.908 41.1562C941.908 41.4102 941.811 41.6396 941.615 41.8447C941.43 42.0498 941.195 42.1523 940.912 42.1523C940.629 42.1523 940.39 42.0498 940.194 41.8447C940.009 41.6396 939.916 41.4102 939.916 41.1562C939.916 40.8926 940.009 40.6631 940.194 40.4678C940.39 40.2627 940.629 40.1602 940.912 40.1602ZM941.659 43.6758V51H940.458V44.8037H939.301V43.6758H941.659ZM946.273 41.5664V43.6758H948.412V44.8037H946.273V49.0957C946.273 49.3984 946.352 49.6377 946.508 49.8135C946.664 49.9893 946.903 50.0771 947.226 50.0771C947.519 50.0771 947.763 50.043 947.958 49.9746C948.153 49.8965 948.324 49.8135 948.471 49.7256V50.707C948.275 50.8633 948.065 50.9854 947.841 51.0732C947.626 51.1709 947.333 51.2197 946.962 51.2197C946.337 51.2197 945.863 51.0342 945.541 50.6631C945.229 50.2822 945.072 49.7793 945.072 49.1543V44.8037H943.666V44.4521C944.145 44.2373 944.545 43.8857 944.867 43.3975C945.189 42.8994 945.473 42.2891 945.717 41.5664H946.273ZM962.27 41.1855V42.4307H958.886V50.9561H957.567V42.4307H954.184V41.1855H962.27ZM965.141 43.6758V45.1406C965.424 44.6523 965.766 44.2617 966.166 43.9688C966.566 43.6758 966.977 43.5293 967.396 43.5293C967.68 43.5293 967.934 43.5781 968.158 43.6758V45.0674C967.846 44.8818 967.533 44.7891 967.221 44.7891C966.723 44.7891 966.317 44.9648 966.005 45.3164C965.702 45.668 965.414 46.0879 965.141 46.5762V51H963.939V43.6758H965.141ZM972.714 43.5293C973.134 43.5293 973.559 43.6318 973.988 43.8369C974.428 44.0322 974.804 44.3057 975.116 44.6572V43.6758H976.317V51H975.116V49.7549C974.862 50.1455 974.516 50.4873 974.076 50.7803C973.646 51.0732 973.153 51.2197 972.597 51.2197C971.972 51.2197 971.4 51.0635 970.883 50.751C970.365 50.4287 969.95 49.9844 969.638 49.418C969.335 48.8516 969.184 48.1973 969.184 47.4551C969.184 46.6445 969.335 45.9463 969.638 45.3604C969.95 44.7744 970.375 44.3252 970.912 44.0127C971.449 43.6904 972.05 43.5293 972.714 43.5293ZM972.934 44.7012C972.406 44.7012 971.957 44.833 971.586 45.0967C971.215 45.3604 970.927 45.7021 970.722 46.1221C970.526 46.5322 970.429 46.9766 970.429 47.4551C970.429 47.9238 970.526 48.3584 970.722 48.7588C970.917 49.1494 971.19 49.4619 971.542 49.6963C971.903 49.9307 972.318 50.0479 972.787 50.0479C973.236 50.0479 973.637 49.9307 973.988 49.6963C974.34 49.4619 974.618 49.1396 974.823 48.7295C975.028 48.3096 975.126 47.8408 975.116 47.3232L975.102 45.917C974.799 45.5361 974.472 45.2383 974.12 45.0234C973.778 44.8086 973.383 44.7012 972.934 44.7012ZM979.979 40.1602C980.263 40.1602 980.497 40.2627 980.683 40.4678C980.878 40.6631 980.976 40.8926 980.976 41.1562C980.976 41.4102 980.878 41.6396 980.683 41.8447C980.497 42.0498 980.263 42.1523 979.979 42.1523C979.696 42.1523 979.457 42.0498 979.262 41.8447C979.076 41.6396 978.983 41.4102 978.983 41.1562C978.983 40.8926 979.076 40.6631 979.262 40.4678C979.457 40.2627 979.696 40.1602 979.979 40.1602ZM980.727 43.6758V51H979.525V44.8037H978.368V43.6758H980.727ZM984.521 40.4531V51H983.319V40.4531H984.521Z" fill="black"/>
<path d="M538.003 41.1562V50.502C538.003 51.332 537.866 52.0205 537.593 52.5674C537.319 53.1143 536.943 53.5537 536.465 53.8857C535.996 54.2275 535.454 54.5107 534.839 54.7354L534.194 53.4609C535.854 52.8652 536.685 51.9668 536.685 50.7656V41.1562H538.003ZM544.17 43.5293C544.912 43.5293 545.571 43.7051 546.147 44.0566C546.724 44.4082 547.173 44.877 547.495 45.4629C547.827 46.0488 547.993 46.6885 547.993 47.3818C547.993 48.0752 547.827 48.7148 547.495 49.3008C547.173 49.877 546.724 50.3408 546.147 50.6924C545.571 51.0439 544.912 51.2197 544.17 51.2197C543.428 51.2197 542.769 51.0439 542.192 50.6924C541.616 50.3408 541.162 49.877 540.83 49.3008C540.508 48.7148 540.347 48.0752 540.347 47.3818C540.347 46.6885 540.508 46.0488 540.83 45.4629C541.162 44.877 541.616 44.4082 542.192 44.0566C542.769 43.7051 543.428 43.5293 544.17 43.5293ZM544.17 44.7012C543.652 44.7012 543.198 44.8281 542.808 45.082C542.417 45.3262 542.114 45.6533 541.899 46.0635C541.694 46.4639 541.592 46.9033 541.592 47.3818C541.592 47.8506 541.694 48.29 541.899 48.7002C542.114 49.1006 542.417 49.4277 542.808 49.6816C543.198 49.9258 543.652 50.0479 544.17 50.0479C544.697 50.0479 545.151 49.9258 545.532 49.6816C545.923 49.4277 546.221 49.1006 546.426 48.7002C546.641 48.29 546.748 47.8506 546.748 47.3818C546.748 46.9033 546.641 46.4639 546.426 46.0635C546.221 45.6533 545.923 45.3262 545.532 45.082C545.151 44.8281 544.697 44.7012 544.17 44.7012ZM553.574 43.5293C554.248 43.5293 554.849 43.6904 555.376 44.0127C555.913 44.3252 556.333 44.7744 556.636 45.3604C556.948 45.9463 557.104 46.6445 557.104 47.4551C557.104 48.1973 556.948 48.8516 556.636 49.418C556.333 49.9844 555.923 50.4287 555.405 50.751C554.897 51.0635 554.326 51.2197 553.691 51.2197C553.135 51.2197 552.637 51.0732 552.197 50.7803C551.768 50.4873 551.426 50.1455 551.172 49.7549V51H549.971V40.4531H551.172V44.6572C551.484 44.3057 551.855 44.0322 552.285 43.8369C552.725 43.6318 553.154 43.5293 553.574 43.5293ZM553.354 44.7158C552.905 44.7158 552.51 44.8232 552.168 45.0381C551.826 45.2432 551.499 45.5361 551.187 45.917L551.172 47.3232C551.172 47.8408 551.27 48.3047 551.465 48.7148C551.67 49.125 551.948 49.4473 552.3 49.6816C552.661 49.916 553.062 50.0332 553.501 50.0332C553.979 50.0332 554.395 49.916 554.746 49.6816C555.098 49.4473 555.371 49.1348 555.566 48.7441C555.762 48.3535 555.859 47.9238 555.859 47.4551C555.859 46.9766 555.757 46.5322 555.552 46.1221C555.356 45.7021 555.073 45.3652 554.702 45.1113C554.331 44.8477 553.882 44.7158 553.354 44.7158ZM565.161 41.1855V49.7549H570.566V51H563.843V41.1855H565.161ZM573.965 40.1602C574.248 40.1602 574.482 40.2627 574.668 40.4678C574.863 40.6631 574.961 40.8926 574.961 41.1562C574.961 41.4102 574.863 41.6396 574.668 41.8447C574.482 42.0498 574.248 42.1523 573.965 42.1523C573.682 42.1523 573.442 42.0498 573.247 41.8447C573.062 41.6396 572.969 41.4102 572.969 41.1562C572.969 40.8926 573.062 40.6631 573.247 40.4678C573.442 40.2627 573.682 40.1602 573.965 40.1602ZM574.712 43.6758V51H573.511V44.8037H572.354V43.6758H574.712ZM579.487 43.5293C579.917 43.5293 580.317 43.5928 580.688 43.7197C581.06 43.8369 581.328 43.959 581.494 44.0859V45.375C581.289 45.2188 581.011 45.0674 580.659 44.9209C580.308 44.7744 579.946 44.7012 579.575 44.7012C579.116 44.7012 578.77 44.8086 578.535 45.0234C578.311 45.2383 578.198 45.4629 578.198 45.6973C578.198 45.8828 578.262 46.0732 578.389 46.2686C578.525 46.4541 578.76 46.6055 579.092 46.7227L580.322 47.1621C580.801 47.3281 581.157 47.5674 581.392 47.8799C581.626 48.1924 581.743 48.5586 581.743 48.9785C581.743 49.3887 581.626 49.7646 581.392 50.1064C581.167 50.4482 580.85 50.7217 580.439 50.9268C580.039 51.1221 579.575 51.2197 579.048 51.2197C578.765 51.2197 578.467 51.1807 578.154 51.1025C577.852 51.0342 577.578 50.9512 577.334 50.8535C577.09 50.7461 576.909 50.6533 576.792 50.5752V49.2861C576.929 49.3838 577.119 49.4961 577.363 49.623C577.617 49.7402 577.886 49.8428 578.169 49.9307C578.452 50.0088 578.716 50.0479 578.96 50.0479C579.419 50.0479 579.78 49.9453 580.044 49.7402C580.317 49.5352 580.454 49.2812 580.454 48.9785C580.454 48.7441 580.361 48.5586 580.176 48.4219C580 48.2852 579.741 48.1533 579.399 48.0264L578.315 47.6309C577.749 47.416 577.373 47.1475 577.188 46.8252C577.002 46.4932 576.909 46.1172 576.909 45.6973C576.909 45.0723 577.144 44.5547 577.612 44.1445C578.081 43.7344 578.706 43.5293 579.487 43.5293ZM585.596 41.5664V43.6758H587.734V44.8037H585.596V49.0957C585.596 49.3984 585.674 49.6377 585.83 49.8135C585.986 49.9893 586.226 50.0771 586.548 50.0771C586.841 50.0771 587.085 50.043 587.28 49.9746C587.476 49.8965 587.646 49.8135 587.793 49.7256V50.707C587.598 50.8633 587.388 50.9854 587.163 51.0732C586.948 51.1709 586.655 51.2197 586.284 51.2197C585.659 51.2197 585.186 51.0342 584.863 50.6631C584.551 50.2822 584.395 49.7793 584.395 49.1543V44.8037H582.988V44.4521C583.467 44.2373 583.867 43.8857 584.189 43.3975C584.512 42.8994 584.795 42.2891 585.039 41.5664H585.596ZM591.089 40.1602C591.372 40.1602 591.606 40.2627 591.792 40.4678C591.987 40.6631 592.085 40.8926 592.085 41.1562C592.085 41.4102 591.987 41.6396 591.792 41.8447C591.606 42.0498 591.372 42.1523 591.089 42.1523C590.806 42.1523 590.566 42.0498 590.371 41.8447C590.186 41.6396 590.093 41.4102 590.093 41.1562C590.093 40.8926 590.186 40.6631 590.371 40.4678C590.566 40.2627 590.806 40.1602 591.089 40.1602ZM591.836 43.6758V51H590.635V44.8037H589.478V43.6758H591.836ZM595.63 43.6758V44.833C595.786 44.6377 595.986 44.4424 596.23 44.2471C596.475 44.042 596.748 43.8711 597.051 43.7344C597.363 43.5977 597.686 43.5293 598.018 43.5293C598.516 43.5293 598.97 43.6416 599.38 43.8662C599.79 44.0811 600.117 44.4131 600.361 44.8623C600.605 45.3018 600.728 45.8584 600.728 46.5322V51H599.526L599.512 46.6494C599.512 46.0146 599.37 45.5312 599.087 45.1992C598.813 44.8672 598.389 44.7012 597.812 44.7012C597.422 44.7012 597.031 44.8477 596.641 45.1406C596.26 45.4238 595.923 45.7559 595.63 46.1367V51H594.429V43.6758H595.63ZM606.016 43.5293C606.436 43.5293 606.86 43.6318 607.29 43.8369C607.729 44.0322 608.105 44.3057 608.418 44.6572V43.6758H609.619V50.8535C609.619 51.7227 609.443 52.4453 609.092 53.0215C608.74 53.5977 608.271 54.0273 607.686 54.3105C607.1 54.5938 606.46 54.7354 605.767 54.7354C605.317 54.7354 604.932 54.6816 604.609 54.5742C604.297 54.4766 604.028 54.3496 603.804 54.1934C603.579 54.0469 603.374 53.9053 603.188 53.7686V52.4795C603.335 52.5869 603.525 52.7236 603.76 52.8896C604.004 53.0654 604.292 53.2217 604.624 53.3584C604.966 53.4951 605.347 53.5635 605.767 53.5635C606.245 53.5635 606.685 53.4756 607.085 53.2998C607.485 53.124 607.808 52.8652 608.052 52.5234C608.296 52.1816 608.418 51.7715 608.418 51.293V49.7549C608.164 50.1455 607.817 50.4873 607.378 50.7803C606.948 51.0732 606.455 51.2197 605.898 51.2197C605.273 51.2197 604.702 51.0635 604.185 50.751C603.667 50.4287 603.252 49.9844 602.939 49.418C602.637 48.8516 602.485 48.1973 602.485 47.4551C602.485 46.6445 602.637 45.9463 602.939 45.3604C603.252 44.7744 603.677 44.3252 604.214 44.0127C604.751 43.6904 605.352 43.5293 606.016 43.5293ZM606.235 44.7158C605.708 44.7158 605.259 44.8477 604.888 45.1113C604.517 45.3652 604.229 45.7021 604.023 46.1221C603.828 46.5322 603.73 46.9766 603.73 47.4551C603.73 47.9238 603.828 48.3535 604.023 48.7441C604.219 49.1348 604.492 49.4473 604.844 49.6816C605.205 49.916 605.62 50.0332 606.089 50.0332C606.538 50.0332 606.938 49.916 607.29 49.6816C607.642 49.4473 607.92 49.125 608.125 48.7148C608.33 48.3047 608.428 47.8408 608.418 47.3232L608.403 45.917C608.101 45.5361 607.773 45.2432 607.422 45.0381C607.08 44.8232 606.685 44.7158 606.235 44.7158ZM614.292 43.5293C614.722 43.5293 615.122 43.5928 615.493 43.7197C615.864 43.8369 616.133 43.959 616.299 44.0859V45.375C616.094 45.2188 615.815 45.0674 615.464 44.9209C615.112 44.7744 614.751 44.7012 614.38 44.7012C613.921 44.7012 613.574 44.8086 613.34 45.0234C613.115 45.2383 613.003 45.4629 613.003 45.6973C613.003 45.8828 613.066 46.0732 613.193 46.2686C613.33 46.4541 613.564 46.6055 613.896 46.7227L615.127 47.1621C615.605 47.3281 615.962 47.5674 616.196 47.8799C616.431 48.1924 616.548 48.5586 616.548 48.9785C616.548 49.3887 616.431 49.7646 616.196 50.1064C615.972 50.4482 615.654 50.7217 615.244 50.9268C614.844 51.1221 614.38 51.2197 613.853 51.2197C613.569 51.2197 613.271 51.1807 612.959 51.1025C612.656 51.0342 612.383 50.9512 612.139 50.8535C611.895 50.7461 611.714 50.6533 611.597 50.5752V49.2861C611.733 49.3838 611.924 49.4961 612.168 49.623C612.422 49.7402 612.69 49.8428 612.974 49.9307C613.257 50.0088 613.521 50.0479 613.765 50.0479C614.224 50.0479 614.585 49.9453 614.849 49.7402C615.122 49.5352 615.259 49.2812 615.259 48.9785C615.259 48.7441 615.166 48.5586 614.98 48.4219C614.805 48.2852 614.546 48.1533 614.204 48.0264L613.12 47.6309C612.554 47.416 612.178 47.1475 611.992 46.8252C611.807 46.4932 611.714 46.1172 611.714 45.6973C611.714 45.0723 611.948 44.5547 612.417 44.1445C612.886 43.7344 613.511 43.5293 614.292 43.5293Z" fill="black"/>
<path d="M457.501 41.1855V45.1846H462.057V41.1855H464.078V51H462.057V47.0156H457.501V51H455.465V41.1855H457.501ZM470.128 43.4121C470.851 43.4121 471.51 43.5879 472.105 43.9395C472.701 44.2812 473.18 44.75 473.541 45.3457C473.912 45.9316 474.098 46.5908 474.098 47.3232C474.098 48.0557 473.912 48.7148 473.541 49.3008C473.18 49.8867 472.701 50.3555 472.105 50.707C471.51 51.0488 470.851 51.2197 470.128 51.2197C469.415 51.2197 468.756 51.0488 468.15 50.707C467.555 50.3555 467.076 49.8867 466.715 49.3008C466.354 48.7148 466.173 48.0557 466.173 47.3232C466.173 46.5908 466.354 45.9316 466.715 45.3457C467.076 44.75 467.555 44.2812 468.15 43.9395C468.756 43.5879 469.415 43.4121 470.128 43.4121ZM470.128 45.2139C469.776 45.2139 469.449 45.2969 469.146 45.4629C468.844 45.6289 468.6 45.8682 468.414 46.1807C468.238 46.4932 468.15 46.874 468.15 47.3232C468.15 47.7725 468.238 48.1533 468.414 48.4658C468.6 48.7783 468.844 49.0176 469.146 49.1836C469.449 49.3398 469.776 49.418 470.128 49.418C470.479 49.418 470.807 49.3398 471.109 49.1836C471.412 49.0176 471.656 48.7783 471.842 48.4658C472.027 48.1533 472.12 47.7725 472.12 47.3232C472.12 46.874 472.027 46.4932 471.842 46.1807C471.656 45.8682 471.412 45.6289 471.109 45.4629C470.807 45.2969 470.479 45.2139 470.128 45.2139ZM477.716 43.6025V44.54C477.94 44.2568 478.209 43.998 478.521 43.7637C478.844 43.5293 479.254 43.4121 479.752 43.4121C480.27 43.4121 480.738 43.5342 481.158 43.7783C481.578 44.0127 481.905 44.3691 482.14 44.8477C482.433 44.4473 482.774 44.1104 483.165 43.8369C483.556 43.5537 484.01 43.4121 484.527 43.4121C485.025 43.4121 485.479 43.5293 485.89 43.7637C486.3 43.9883 486.627 44.3252 486.871 44.7744C487.125 45.2236 487.252 45.7852 487.252 46.459V51H485.392L485.377 46.708C485.377 46.21 485.245 45.8389 484.981 45.5947C484.728 45.3506 484.391 45.2285 483.971 45.2285C483.648 45.2285 483.37 45.3311 483.136 45.5361C482.901 45.7314 482.682 45.9658 482.477 46.2393V51H480.616L480.602 46.708C480.602 46.21 480.47 45.8389 480.206 45.5947C479.952 45.3506 479.62 45.2285 479.21 45.2285C478.897 45.2285 478.619 45.3262 478.375 45.5215C478.131 45.707 477.911 45.9268 477.716 46.1807V51H475.855V43.6025H477.716ZM492.613 43.4121C493.336 43.4121 493.956 43.5684 494.474 43.8809C495.001 44.1934 495.401 44.6279 495.675 45.1846C495.958 45.7314 496.1 46.3662 496.1 47.0889V47.8799H490.738C490.836 48.3779 491.08 48.7783 491.471 49.0811C491.861 49.3838 492.34 49.5352 492.906 49.5352C493.443 49.5352 493.932 49.4277 494.371 49.2129C494.811 48.998 495.162 48.7783 495.426 48.5537L495.411 50.2822C495.177 50.4873 494.825 50.6973 494.356 50.9121C493.897 51.1172 493.39 51.2197 492.833 51.2197C492.101 51.2197 491.432 51.0537 490.826 50.7217C490.23 50.3896 489.752 49.9355 489.391 49.3594C489.039 48.7832 488.863 48.124 488.863 47.3818C488.863 46.6592 489.024 46 489.347 45.4043C489.669 44.8086 490.113 44.3301 490.68 43.9688C491.246 43.5977 491.891 43.4121 492.613 43.4121ZM492.569 45.0381C492.11 45.0381 491.725 45.1797 491.412 45.4629C491.1 45.7461 490.885 46.127 490.768 46.6055H494.312C494.273 46.0781 494.078 45.6875 493.727 45.4336C493.375 45.1699 492.989 45.0381 492.569 45.0381Z" fill="#36143A"/>
</g>
<defs>
<clipPath id="clip0_11_93">
<rect width="1440" height="93" fill="white"/>
</clipPath>
</defs>
</svg>
