<svg width="17" height="17" viewBox="0 0 17 17" fill="none" xmlns="http://www.w3.org/2000/svg">
<path d="M8.5 16C12.6421 16 16 12.6421 16 8.5C16 4.35786 12.6421 1 8.5 1C4.35786 1 1 4.35786 1 8.5C1 12.6421 4.35786 16 8.5 16Z" stroke="white" stroke-width="0.833333" stroke-linecap="round" stroke-linejoin="round"/>
<path d="M10.1667 6.62501C9.681 6.19812 9.04939 5.97489 8.40327 6.00174C7.75715 6.02859 7.14624 6.30346 6.69758 6.76918C6.24958 7.23401 5.99927 7.85444 5.99927 8.50001C5.99927 9.14559 6.24958 9.76602 6.69758 10.2308C7.14624 10.6966 7.75715 10.9714 8.40327 10.9983C9.04939 11.0251 9.681 10.8019 10.1667 10.375" stroke="white" stroke-width="0.833333" stroke-linecap="round" stroke-linejoin="round"/>
</svg>
